{
  "asset": {
    "version": "2.0",
    "generator": "THREE.GLTFExporter"
  },
  "scenes": [
    {
      "nodes": [
        0
      ]
    }
  ],
  "scene": 0,
  "nodes": [
    {
      "children": [
        12
      ],
      "matrix": [
        0.01,
        0,
        0,
        0,
        0,
        0.01,
        0,
        0,
        0,
        0,
        0.01,
        0,
        0,
        0,
        0,
        1
      ]
    },
    {
      "name": "Sphere",
      "mesh": 0
    },
    {
      "matrix": [
        1,
        0,
        0,
        0,
        0,
        1,
        0,
        0,
        0,
        0,
        1,
        0,
        -60.3447776251147,
        0,
        7.950281959499989,
        1
      ],
      "name": "Sphere 2",
      "mesh": 1
    },
    {
      "matrix": [
        1,
        0,
        0,
        0,
        0,
        1,
        0,
        0,
        0,
        0,
        1,
        0,
        48.41030322379382,
        0,
        0,
        1
      ],
      "name": "Sphere",
      "mesh": 2
    },
    {
      "matrix": [
        0.41420862433594363,
        0,
        0,
        0,
        0,
        0.4142086243359438,
        0,
        0,
        0,
        0,
        0.41420862433594374,
        0,
        5.2553497436468755,
        132.55629821997616,
        32.71035640833894,
        1
      ],
      "name": "eyes",
      "children": [
        2,
        3
      ]
    },
    {
      "matrix": [
        0.41420862433594396,
        0,
        0,
        0,
        0,
        0.4142086243359441,
        0,
        0,
        0,
        0,
        0.414208624335944,
        0,
        2.601611155623621,
        93.32376565660493,
        -18.27433260085954,
        1
      ],
      "name": "body",
      "mesh": 3
    },
    {
      "matrix": [
        0.222792822339539,
        0,
        0,
        0,
        0,
        0.18293129730176086,
        -0.06685250042662431,
        0,
        0,
        0.030261707592413933,
        0.08280637811779087,
        0,
        0.20151503768383572,
        69.6107869979327,
        63.24608899706704,
        1
      ],
      "name": "tonge",
      "mesh": 4
    },
    {
      "matrix": [
        0.388592609683558,
        0,
        0,
        0,
        0,
        0.1858051035547109,
        0,
        0,
        0,
        0,
        0.11655508654852813,
        0,
        3.0140269113828997,
        97.49454426149359,
        39.96408351707885,
        1
      ],
      "name": "mouth",
      "mesh": 5
    },
    {
      "matrix": [
        0.717839470810126,
        0,
        0,
        0,
        0,
        0.7164318431634651,
        0,
        0,
        0,
        0,
        0.7164318431634652,
        0,
        -1.8675391752065802,
        -66.86011744031676,
        10.132284836991856,
        0.9999999999999999
      ],
      "name": "Ghost",
      "children": [
        4,
        5,
        6,
        7
      ]
    },
    {
      "matrix": [
        1,
        0,
        0,
        0,
        0,
        1,
        0,
        0,
        0,
        0,
        1,
        0,
        -44.678713468315436,
        20.808160286715832,
        1.943674826426843,
        1
      ],
      "name": "Ball",
      "children": [
        1,
        8
      ]
    },
    {
      "matrix": [
        1,
        0,
        0,
        0,
        0,
        1,
        -6.128431095930857e-17,
        0,
        0,
        6.128431095930857e-17,
        1,
        0,
        152.07918256654935,
        1.1974738784761387,
        1000.0000000000006,
        1
      ],
      "camera": 0
    },
    {
      "matrix": [
        1,
        0,
        0,
        0,
        0,
        1,
        0,
        0,
        0,
        0,
        1,
        0,
        0,
        1,
        0,
        1
      ],
      "name": "Default Ambient Light"
    },
    {
      "name": "Scene",
      "children": [
        9,
        10,
        11
      ]
    }
  ],
  "bufferViews": [
    {
      "buffer": 0,
      "byteOffset": 0,
      "byteLength": 13068,
      "target": 34962,
      "byteStride": 12
    },
    {
      "buffer": 0,
      "byteOffset": 13068,
      "byteLength": 13068,
      "target": 34962,
      "byteStride": 12
    },
    {
      "buffer": 0,
      "byteOffset": 26136,
      "byteLength": 8712,
      "target": 34962,
      "byteStride": 8
    },
    {
      "buffer": 0,
      "byteOffset": 34848,
      "byteLength": 11904,
      "target": 34963
    },
    {
      "buffer": 0,
      "byteOffset": 46752,
      "byteLength": 2028,
      "target": 34962,
      "byteStride": 12
    },
    {
      "buffer": 0,
      "byteOffset": 48780,
      "byteLength": 2028,
      "target": 34962,
      "byteStride": 12
    },
    {
      "buffer": 0,
      "byteOffset": 50808,
      "byteLength": 1352,
      "target": 34962,
      "byteStride": 8
    },
    {
      "buffer": 0,
      "byteOffset": 52160,
      "byteLength": 1584,
      "target": 34963
    },
    {
      "buffer": 0,
      "byteOffset": 53744,
      "byteLength": 2028,
      "target": 34962,
      "byteStride": 12
    },
    {
      "buffer": 0,
      "byteOffset": 55772,
      "byteLength": 2028,
      "target": 34962,
      "byteStride": 12
    },
    {
      "buffer": 0,
      "byteOffset": 57800,
      "byteLength": 1352,
      "target": 34962,
      "byteStride": 8
    },
    {
      "buffer": 0,
      "byteOffset": 59152,
      "byteLength": 1584,
      "target": 34963
    },
    {
      "buffer": 0,
      "byteOffset": 60736,
      "byteLength": 52224,
      "target": 34962,
      "byteStride": 12
    },
    {
      "buffer": 0,
      "byteOffset": 112960,
      "byteLength": 52224,
      "target": 34962,
      "byteStride": 12
    },
    {
      "buffer": 0,
      "byteOffset": 165184,
      "byteLength": 26112,
      "target": 34963
    },
    {
      "buffer": 0,
      "byteOffset": 191296,
      "byteLength": 18432,
      "target": 34962,
      "byteStride": 12
    },
    {
      "buffer": 0,
      "byteOffset": 209728,
      "byteLength": 18432,
      "target": 34962,
      "byteStride": 12
    },
    {
      "buffer": 0,
      "byteOffset": 228160,
      "byteLength": 9216,
      "target": 34963
    },
    {
      "buffer": 0,
      "byteOffset": 237376,
      "byteLength": 10368,
      "target": 34962,
      "byteStride": 12
    },
    {
      "buffer": 0,
      "byteOffset": 247744,
      "byteLength": 10368,
      "target": 34962,
      "byteStride": 12
    },
    {
      "buffer": 0,
      "byteOffset": 258112,
      "byteLength": 5184,
      "target": 34963
    }
  ],
  "buffers": [
    {
      "byteLength": 263296,
      "uri": "data:application/octet-stream;base64,"
    }
  ],
  "accessors": [
    {
      "bufferView": 0,
      "componentType": 5126,
      "count": 1089,
      "max": [
        148,
        148,
        148
      ],
      "min": [
        -148,
        -148,
        -148
      ],
      "type": "VEC3"
    },
    {
      "bufferView": 1,
      "componentType": 5126,
      "count": 1089,
      "max": [
        1,
        1,
        1
      ],
      "min": [
        -1,
        -1,
        -1
      ],
      "type": "VEC3"
    },
    {
      "bufferView": 2,
      "componentType": 5126,
      "count": 1089,
      "max": [
        1.015625,
        1
      ],
      "min": [
        -0.015625,
        0
      ],
      "type": "VEC2"
    },
    {
      "bufferView": 3,
      "componentType": 5123,
      "count": 5952,
      "max": [
        1088
      ],
      "min": [
        0
      ],
      "type": "SCALAR"
    },
    {
      "bufferView": 4,
      "componentType": 5126,
      "count": 169,
      "max": [
        34.861961364746094,
        34.861961364746094,
        34.861961364746094
      ],
      "min": [
        -34.861961364746094,
        -34.861961364746094,
        -34.861961364746094
      ],
      "type": "VEC3"
    },
    {
      "bufferView": 5,
      "componentType": 5126,
      "count": 169,
      "max": [
        1,
        1,
        1
      ],
      "min": [
        -1,
        -1,
        -1
      ],
      "type": "VEC3"
    },
    {
      "bufferView": 6,
      "componentType": 5126,
      "count": 169,
      "max": [
        1.0416666269302368,
        1
      ],
      "min": [
        -0.0416666679084301,
        0
      ],
      "type": "VEC2"
    },
    {
      "bufferView": 7,
      "componentType": 5123,
      "count": 792,
      "max": [
        168
      ],
      "min": [
        0
      ],
      "type": "SCALAR"
    },
    {
      "bufferView": 8,
      "componentType": 5126,
      "count": 169,
      "max": [
        46.79643630981445,
        46.79643630981445,
        46.79643630981445
      ],
      "min": [
        -46.79643630981445,
        -46.79643630981445,
        -46.79643630981445
      ],
      "type": "VEC3"
    },
    {
      "bufferView": 9,
      "componentType": 5126,
      "count": 169,
      "max": [
        1,
        1,
        1
      ],
      "min": [
        -1,
        -1,
        -1
      ],
      "type": "VEC3"
    },
    {
      "bufferView": 10,
      "componentType": 5126,
      "count": 169,
      "max": [
        1.0416666269302368,
        1
      ],
      "min": [
        -0.0416666679084301,
        0
      ],
      "type": "VEC2"
    },
    {
      "bufferView": 11,
      "componentType": 5123,
      "count": 792,
      "max": [
        168
      ],
      "min": [
        0
      ],
      "type": "SCALAR"
    },
    {
      "bufferView": 12,
      "componentType": 5126,
      "count": 4352,
      "max": [
        283.3789367675781,
        237.93753051757812,
        186.4808349609375
      ],
      "min": [
        -283.37896728515625,
        -233.28338623046875,
        -186.84738159179688
      ],
      "type": "VEC3"
    },
    {
      "bufferView": 13,
      "componentType": 5126,
      "count": 4352,
      "max": [
        0.9999135732650757,
        1,
        0.9999821186065674
      ],
      "min": [
        -0.9999135136604309,
        -0.9999908804893494,
        -0.9999821186065674
      ],
      "type": "VEC3"
    },
    {
      "bufferView": 14,
      "componentType": 5125,
      "count": 6528,
      "max": [
        4351
      ],
      "min": [
        0
      ],
      "type": "SCALAR"
    },
    {
      "bufferView": 15,
      "componentType": 5126,
      "count": 1536,
      "max": [
        71.8648681640625,
        147.82257080078125,
        6.081718444824219
      ],
      "min": [
        -71.95565032958984,
        -102.11846160888672,
        -191.86073303222656
      ],
      "type": "VEC3"
    },
    {
      "bufferView": 16,
      "componentType": 5126,
      "count": 1536,
      "max": [
        0.9994921684265137,
        0.9977840185165405,
        0.9999336004257202
      ],
      "min": [
        -0.9994545578956604,
        -0.9993276596069336,
        -0.9892613291740417
      ],
      "type": "VEC3"
    },
    {
      "bufferView": 17,
      "componentType": 5125,
      "count": 2304,
      "max": [
        1535
      ],
      "min": [
        0
      ],
      "type": "SCALAR"
    },
    {
      "bufferView": 18,
      "componentType": 5126,
      "count": 864,
      "max": [
        101.62179565429688,
        10.509989738464355,
        55.6287956237793
      ],
      "min": [
        -102.12167358398438,
        -103.17635345458984,
        -181.89125061035156
      ],
      "type": "VEC3"
    },
    {
      "bufferView": 19,
      "componentType": 5126,
      "count": 864,
      "max": [
        0.9980756044387817,
        0.9999984502792358,
        1
      ],
      "min": [
        -0.9977645874023438,
        -0.9999985098838806,
        -0.9999985694885254
      ],
      "type": "VEC3"
    },
    {
      "bufferView": 20,
      "componentType": 5125,
      "count": 1296,
      "max": [
        863
      ],
      "min": [
        0
      ],
      "type": "SCALAR"
    }
  ],
  "materials": [
    {
      "pbrMetallicRoughness": {
        "baseColorFactor": [
          1,
          1,
          1,
          1
        ],
        "metallicFactor": 0,
        "roughnessFactor": 0.995
      },
      "doubleSided": false
    },
    {
      "pbrMetallicRoughness": {
        "baseColorFactor": [
          0.05553257577480653,
          0.05553257577480653,
          0.05553257577480653,
          1
        ],
        "metallicFactor": 0,
        "roughnessFactor": 0.9350227499829415
      },
      "doubleSided": false
    },
    {
      "pbrMetallicRoughness": {
        "baseColorFactor": [
          0.684242874962028,
          0.684242874962028,
          0.684242874962028,
          1
        ],
        "metallicFactor": 0,
        "roughnessFactor": 0.995
      },
      "doubleSided": false
    },
    {
      "pbrMetallicRoughness": {
        "baseColorFactor": [
          0.6422568813276904,
          0.18105118877184456,
          0.1861240901945071,
          1
        ],
        "metallicFactor": 0,
        "roughnessFactor": 0.995
      },
      "doubleSided": false
    }
  ],
  "meshes": [
    {
      "primitives": [
        {
          "mode": 4,
          "attributes": {
            "POSITION": 0,
            "NORMAL": 1,
            "TEXCOORD_0": 2
          },
          "extras": {
            "parameters": {
              "width": 296,
              "widthSegments": 32,
              "heightSegments": 32,
              "phiStart": 0,
              "phiLength": 6.283185307179586,
              "thetaStart": 0,
              "thetaLength": 180,
              "depth": 296,
              "height": 296,
              "type": "SphereGeometry"
            },
            "type": "SphereGeometry"
          },
          "indices": 3,
          "material": 0
        }
      ]
    },
    {
      "primitives": [
        {
          "mode": 4,
          "attributes": {
            "POSITION": 4,
            "NORMAL": 5,
            "TEXCOORD_0": 6
          },
          "extras": {
            "parameters": {
              "width": 69.72392485968469,
              "widthSegments": 12,
              "heightSegments": 12,
              "phiStart": 0,
              "phiLength": 6.283185307179586,
              "thetaStart": 0,
              "thetaLength": 180,
              "height": 69.72392485968469,
              "depth": 69.72392485968469,
              "type": "SphereGeometry"
            },
            "type": "SphereGeometry"
          },
          "indices": 7,
          "material": 1
        }
      ]
    },
    {
      "primitives": [
        {
          "mode": 4,
          "attributes": {
            "POSITION": 8,
            "NORMAL": 9,
            "TEXCOORD_0": 10
          },
          "extras": {
            "parameters": {
              "width": 93.59287366232644,
              "widthSegments": 12,
              "heightSegments": 12,
              "phiStart": 0,
              "phiLength": 6.283185307179586,
              "thetaStart": 0,
              "thetaLength": 180,
              "height": 93.59287366232644,
              "depth": 93.59287366232644,
              "type": "SphereGeometry"
            },
            "type": "SphereGeometry"
          },
          "indices": 11,
          "material": 1
        }
      ]
    },
    {
      "primitives": [
        {
          "mode": 4,
          "attributes": {
            "POSITION": 12,
            "NORMAL": 13
          },
          "extras": {
            "type": "SubdivGeometry",
            "parameters": {
              "width": 580.9085693359375,
              "height": 486.74072265625,
              "depth": 390.4261474609375
            }
          },
          "indices": 14,
          "material": 2
        }
      ]
    },
    {
      "primitives": [
        {
          "mode": 4,
          "attributes": {
            "POSITION": 15,
            "NORMAL": 16
          },
          "extras": {
            "type": "SubdivGeometry",
            "parameters": {
              "width": 148.4636688232422,
              "height": 253.40790557861328,
              "depth": 199.51420879364014
            }
          },
          "indices": 17,
          "material": 3
        }
      ]
    },
    {
      "primitives": [
        {
          "mode": 4,
          "attributes": {
            "POSITION": 18,
            "NORMAL": 19
          },
          "extras": {
            "type": "SubdivGeometry",
            "parameters": {
              "width": 205.26414489746094,
              "height": 121.65383720397949,
              "depth": 249.96265411376953
            }
          },
          "indices": 20,
          "material": 1
        }
      ]
    }
  ],
  "cameras": [
    {
      "type": "orthographic",
      "orthographic": {
        "xmag": 3.8026944171512547,
        "ymag": 2.286458043645922,
        "zfar": 100000,
        "znear": 0
      }
    }
  ]
}