{
  "asset": {
    "version": "2.0",
    "generator": "THREE.GLTFExporter"
  },
  "scenes": [
    {
      "nodes": [
        0
      ]
    }
  ],
  "scene": 0,
  "nodes": [
    {
      "children": [
        4
      ],
      "matrix": [
        0.01,
        0,
        0,
        0,
        0,
        0.01,
        0,
        0,
        0,
        0,
        0.01,
        0,
        0,
        0,
        0,
        1
      ]
    },
    {
      "matrix": [
        1,
        0,
        0,
        0,
        0,
        1,
        0,
        0,
        0,
        0,
        1,
        0,
        2045.132639110695,
        -92.51120249626325,
        -477.38220270662714,
        1
      ],
      "name": "Rectangle 2",
      "mesh": 0
    },
    {
      "matrix": [
        0.9803498193322465,
        0,
        -0.19726690481485157,
        0,
        -0.0662131863282869,
        0.941985778432254,
        -0.32905714881709563,
        0,
        0.1858226188909393,
        0.3356527867177341,
        0.9234755876996057,
        0,
        2360.6505458675647,
        668.1387953837923,
        1882.746361628743,
        1
      ],
      "camera": 0
    },
    {
      "matrix": [
        1,
        0,
        0,
        0,
        0,
        1,
        0,
        0,
        0,
        0,
        1,
        0,
        0,
        1,
        0,
        1
      ],
      "name": "Default Ambient Light"
    },
    {
      "name": "Scene 1",
      "children": [
        1,
        2,
        3
      ]
    }
  ],
  "bufferViews": [
    {
      "buffer": 0,
      "byteOffset": 0,
      "byteLength": 7872,
      "target": 34962,
      "byteStride": 12
    },
    {
      "buffer": 0,
      "byteOffset": 7872,
      "byteLength": 7872,
      "target": 34962,
      "byteStride": 12
    },
    {
      "buffer": 0,
      "byteOffset": 15744,
      "byteLength": 5248,
      "target": 34962,
      "byteStride": 8
    },
    {
      "buffer": 0,
      "byteOffset": 20992,
      "byteLength": 7824,
      "target": 34963
    }
  ],
  "buffers": [
    {
      "byteLength": 28816,
      "uri": "data:application/octet-stream;base64,"
    }
  ],
  "accessors": [
    {
      "bufferView": 0,
      "componentType": 5126,
      "count": 656,
      "max": [
        443.2650146484375,
        575.3900146484375,
        30
      ],
      "min": [
        -443.2650146484375,
        -575.3900146484375,
        0
      ],
      "type": "VEC3"
    },
    {
      "bufferView": 1,
      "componentType": 5126,
      "count": 656,
      "max": [
        1,
        1,
        1
      ],
      "min": [
        -1,
        -1,
        -1
      ],
      "type": "VEC3"
    },
    {
      "bufferView": 2,
      "componentType": 5126,
      "count": 656,
      "max": [
        1,
        1
      ],
      "min": [
        0,
        0
      ],
      "type": "VEC2"
    },
    {
      "bufferView": 3,
      "componentType": 5125,
      "count": 1956,
      "max": [
        655
      ],
      "min": [
        0
      ],
      "type": "SCALAR"
    }
  ],
  "materials": [
    {
      "pbrMetallicRoughness": {
        "baseColorFactor": [
          0.08865558627723595,
          0.08865558627723595,
          0.10461648408208657,
          1
        ],
        "metallicFactor": 0,
        "roughnessFactor": 0.9056426648260791
      },
      "doubleSided": false
    }
  ],
  "meshes": [
    {
      "primitives": [
        {
          "mode": 4,
          "attributes": {
            "POSITION": 0,
            "NORMAL": 1,
            "TEXCOORD_0": 2
          },
          "extras": {
            "shape": {
              "points": [
                -443.265,
                575.39,
                -443.265,
                575.39,
                -443.265,
                575.39,
                118,
                443.265,
                575.39,
                443.265,
                575.39,
                443.265,
                575.39,
                118,
                443.265,
                -575.39,
                443.265,
                -575.39,
                443.265,
                -575.39,
                118,
                -443.265,
                -575.39,
                -443.265,
                -575.39,
                -443.265,
                -575.39,
                118
              ],
              "shapeHoles": [],
              "isClosed": true,
              "roundness": 118
            },
            "parameters": {
              "width": 886.53,
              "depth": 30,
              "cornerRadius": [
                118,
                118,
                118,
                118
              ],
              "cornerType": 1,
              "extrudeBevelSize": 0,
              "extrudeBevelSegments": 1,
              "height": 1150.78,
              "type": "RectangleGeometry"
            },
            "ui": {
              "enabledIndieCorners": false
            },
            "type": "RectangleGeometry"
          },
          "indices": 3,
          "material": 0
        }
      ]
    }
  ],
  "cameras": [
    {
      "type": "orthographic",
      "orthographic": {
        "xmag": 26.648896409592645,
        "ymag": 15.313862346484662,
        "zfar": 100000,
        "znear": 0
      }
    }
  ]
}