{
  "asset": {
    "version": "2.0",
    "generator": "THREE.GLTFExporter"
  },
  "scenes": [
    {
      "nodes": [
        0
      ]
    }
  ],
  "scene": 0,
  "nodes": [
    {
      "children": [
        4
      ],
      "matrix": [
        0.01,
        0,
        0,
        0,
        0,
        0.01,
        0,
        0,
        0,
        0,
        0.01,
        0,
        0,
        0,
        0,
        1
      ]
    },
    {
      "matrix": [
        1,
        0,
        0,
        0,
        0,
        1,
        0,
        0,
        0,
        0,
        1,
        0,
        2274.5839760320223,
        333.4424525476692,
        -2.9042406117223436,
        1
      ],
      "name": "Rectangle",
      "mesh": 0
    },
    {
      "matrix": [
        1,
        0,
        0,
        0,
        0,
        1,
        -6.143175677427885e-17,
        0,
        0,
        6.143175677427885e-17,
        1,
        0,
        2140.289355588324,
        96.36527878015836,
        1981.555535388239,
        1
      ],
      "camera": 0
    },
    {
      "matrix": [
        1,
        0,
        0,
        0,
        0,
        1,
        0,
        0,
        0,
        0,
        1,
        0,
        0,
        1,
        0,
        1
      ],
      "name": "Default Ambient Light"
    },
    {
      "name": "Scene 1",
      "children": [
        1,
        2,
        3
      ]
    }
  ],
  "bufferViews": [
    {
      "buffer": 0,
      "byteOffset": 0,
      "byteLength": 102564,
      "target": 34962,
      "byteStride": 12
    },
    {
      "buffer": 0,
      "byteOffset": 102564,
      "byteLength": 102564,
      "target": 34962,
      "byteStride": 12
    },
    {
      "buffer": 0,
      "byteOffset": 205128,
      "byteLength": 68376,
      "target": 34962,
      "byteStride": 8
    },
    {
      "buffer": 0,
      "byteOffset": 273504,
      "byteLength": 97440,
      "target": 34963
    }
  ],
  "buffers": [
    {
      "byteLength": 370944,
      "uri": "data:application/octet-stream;base64,"
    }
  ],
  "accessors": [
    {
      "bufferView": 0,
      "componentType": 5126,
      "count": 8547,
      "max": [
        453.76312255859375,
        585.8887939453125,
        10.5
      ],
      "min": [
        -453.76312255859375,
        -585.8887939453125,
        -10.5
      ],
      "type": "VEC3"
    },
    {
      "bufferView": 1,
      "componentType": 5126,
      "count": 8547,
      "max": [
        0.9872409105300903,
        0.9872409105300903,
        0.9872409105300903
      ],
      "min": [
        -0.9872409105300903,
        -0.9872409105300903,
        -0.9872409105300903
      ],
      "type": "VEC3"
    },
    {
      "bufferView": 2,
      "componentType": 5126,
      "count": 8547,
      "max": [
        1,
        1
      ],
      "min": [
        0,
        0
      ],
      "type": "VEC2"
    },
    {
      "bufferView": 3,
      "componentType": 5123,
      "count": 48720,
      "max": [
        8546
      ],
      "min": [
        0
      ],
      "type": "SCALAR"
    }
  ],
  "materials": [
    {
      "pbrMetallicRoughness": {
        "baseColorFactor": [
          0.6367730944343574,
          0.6367730944343574,
          0.6367730944343574,
          1
        ],
        "metallicFactor": 0,
        "roughnessFactor": 0.995
      },
      "doubleSided": false
    }
  ],
  "meshes": [
    {
      "primitives": [
        {
          "mode": 4,
          "attributes": {
            "POSITION": 0,
            "NORMAL": 1,
            "TEXCOORD_0": 2
          },
          "extras": {
            "path": {
              "points": [
                {
                  "id": "0cb7a655-dac5-4071-a22b-cbd5237cdbb6",
                  "fi": 0,
                  "data": {
                    "position": [
                      -443.2631192087052,
                      575.3887822931929,
                      0
                    ],
                    "roundness": 118,
                    "areControlsDirectionsMirrored": true,
                    "controlPrevious": {
                      "position": [
                        -443.2631192087052,
                        575.3887822931929,
                        0
                      ]
                    },
                    "controlNext": {
                      "position": [
                        -443.2631192087052,
                        575.3887822931929,
                        0
                      ]
                    }
                  }
                },
                {
                  "id": "94b535f1-eba3-44a9-a86c-394c7a92acd8",
                  "fi": 1,
                  "data": {
                    "position": [
                      443.2631192087052,
                      575.3887822931929,
                      0
                    ],
                    "roundness": 118,
                    "areControlsDirectionsMirrored": true,
                    "controlPrevious": {
                      "position": [
                        443.2631192087052,
                        575.3887822931929,
                        0
                      ]
                    },
                    "controlNext": {
                      "position": [
                        443.2631192087052,
                        575.3887822931929,
                        0
                      ]
                    }
                  }
                },
                {
                  "id": "526ef866-a336-4140-bd3e-565806361f1b",
                  "fi": 2,
                  "data": {
                    "position": [
                      443.2631192087052,
                      -575.3887822931929,
                      0
                    ],
                    "roundness": 118,
                    "areControlsDirectionsMirrored": true,
                    "controlPrevious": {
                      "position": [
                        443.2631192087052,
                        -575.3887822931929,
                        0
                      ]
                    },
                    "controlNext": {
                      "position": [
                        443.2631192087052,
                        -575.3887822931929,
                        0
                      ]
                    }
                  }
                },
                {
                  "id": "6c9ae34a-3eda-433c-98c3-53daf991d31a",
                  "fi": 3,
                  "data": {
                    "position": [
                      -443.2631192087052,
                      -575.3887822931929,
                      0
                    ],
                    "roundness": 118,
                    "areControlsDirectionsMirrored": true,
                    "controlPrevious": {
                      "position": [
                        -443.2631192087052,
                        -575.3887822931929,
                        0
                      ]
                    },
                    "controlNext": {
                      "position": [
                        -443.2631192087052,
                        -575.3887822931929,
                        0
                      ]
                    }
                  }
                }
              ],
              "lastInsertionPlane": null,
              "subdivisions": 50,
              "isClosed": true,
              "roundness": 0
            },
            "parameters": {
              "width": 886.5262384174099,
              "height": 1150.7775645863842,
              "depth": 0.007234056560264435,
              "subdivisions": 12,
              "roundness": 0,
              "extrudeBevelSize": 0,
              "extrudeBevelSegments": 1,
              "cornerRadius": [
                0,
                0,
                0,
                0
              ],
              "cornerType": 1,
              "type": "PathGeometry",
              "path": {
                "points": [
                  {
                    "id": "0cb7a655-dac5-4071-a22b-cbd5237cdbb6",
                    "fi": 0,
                    "data": {
                      "position": [
                        -443.2631192087052,
                        575.3887822931929,
                        0
                      ],
                      "roundness": 118,
                      "areControlsDirectionsMirrored": true,
                      "controlPrevious": {
                        "position": [
                          -443.2631192087052,
                          575.3887822931929,
                          0
                        ]
                      },
                      "controlNext": {
                        "position": [
                          -443.2631192087052,
                          575.3887822931929,
                          0
                        ]
                      }
                    }
                  },
                  {
                    "id": "94b535f1-eba3-44a9-a86c-394c7a92acd8",
                    "fi": 1,
                    "data": {
                      "position": [
                        443.2631192087052,
                        575.3887822931929,
                        0
                      ],
                      "roundness": 118,
                      "areControlsDirectionsMirrored": true,
                      "controlPrevious": {
                        "position": [
                          443.2631192087052,
                          575.3887822931929,
                          0
                        ]
                      },
                      "controlNext": {
                        "position": [
                          443.2631192087052,
                          575.3887822931929,
                          0
                        ]
                      }
                    }
                  },
                  {
                    "id": "526ef866-a336-4140-bd3e-565806361f1b",
                    "fi": 2,
                    "data": {
                      "position": [
                        443.2631192087052,
                        -575.3887822931929,
                        0
                      ],
                      "roundness": 118,
                      "areControlsDirectionsMirrored": true,
                      "controlPrevious": {
                        "position": [
                          443.2631192087052,
                          -575.3887822931929,
                          0
                        ]
                      },
                      "controlNext": {
                        "position": [
                          443.2631192087052,
                          -575.3887822931929,
                          0
                        ]
                      }
                    }
                  },
                  {
                    "id": "6c9ae34a-3eda-433c-98c3-53daf991d31a",
                    "fi": 3,
                    "data": {
                      "position": [
                        -443.2631192087052,
                        -575.3887822931929,
                        0
                      ],
                      "roundness": 118,
                      "areControlsDirectionsMirrored": true,
                      "controlPrevious": {
                        "position": [
                          -443.2631192087052,
                          -575.3887822931929,
                          0
                        ]
                      },
                      "controlNext": {
                        "position": [
                          -443.2631192087052,
                          -575.3887822931929,
                          0
                        ]
                      }
                    }
                  }
                ],
                "lastInsertionPlane": null,
                "subdivisions": 50,
                "isClosed": true,
                "roundness": 0
              },
              "extrusion": {
                "shape": {
                  "type": "Ellipse",
                  "width": 21,
                  "height": 21,
                  "spikes": 16,
                  "angle": 360,
                  "innerRadius": 0
                },
                "depth": 1,
                "offset": 0,
                "bevel": 50,
                "bevelSides": 6,
                "angle": 0,
                "twist": 0,
                "startScale": 1,
                "endScale": 1,
                "capType": "flat"
              }
            },
            "shapeData": {
              "points": [
                -25,
                0,
                -25,
                -13.807118744999999,
                -25,
                13.807118744999999,
                0,
                0,
                25,
                -13.807118744999999,
                25,
                13.807118744999999,
                25,
                0,
                25,
                0,
                25,
                13.807118744999999,
                25,
                -13.807118744999999,
                0,
                0,
                -25,
                13.807118744999999,
                -25,
                -13.807118744999999,
                -25,
                0
              ],
              "shapeHoles": [],
              "isClosed": true,
              "roundness": 0
            },
            "type": "PathGeometry"
          },
          "indices": 3,
          "material": 0
        }
      ]
    }
  ],
  "cameras": [
    {
      "type": "orthographic",
      "orthographic": {
        "xmag": 26.648896409592645,
        "ymag": 15.313862346484662,
        "zfar": 100000,
        "znear": 0
      }
    }
  ]
}