{
  "asset": {
    "version": "2.0",
    "generator": "THREE.GLTFExporter"
  },
  "scenes": [
    {
      "nodes": [
        0
      ]
    }
  ],
  "scene": 0,
  "nodes": [
    {
      "children": [
        8
      ],
      "matrix": [
        0.01,
        0,
        0,
        0,
        0,
        0.01,
        0,
        0,
        0,
        0,
        0.01,
        0,
        0,
        0,
        0,
        1
      ]
    },
    {
      "matrix": [
        4.27275155793181e-8,
        -1.1706091258311948,
        -1.1706091258311948,
        0,
        0,
        1.1706091258312281,
        -1.1706091258312281,
        0,
        1.655491301988163,
        3.0212916158489136e-8,
        3.021291597469267e-8,
        0,
        -5.961167382555573,
        3.9790393201916715e-13,
        2.2737367545646695e-13,
        1.0000000000000002
      ],
      "name": "Cylinder",
      "mesh": 0
    },
    {
      "matrix": [
        0.08715574274765475,
        -0.9961946980917129,
        0,
        0,
        0.9961946980917129,
        0.08715574274765475,
        0,
        0,
        0,
        0,
        1,
        0,
        64.80246721727535,
        9.553672215497786,
        6.67957693105086,
        1
      ],
      "name": "Sphere 2",
      "mesh": 1
    },
    {
      "matrix": [
        0.7090906233124674,
        0,
        0,
        0,
        0,
        0.7090906233124674,
        0,
        0,
        0,
        0,
        0.7090906233124674,
        0,
        8.909605530493419,
        30.58275758853375,
        -6.519339199949626,
        1
      ],
      "name": "Group 6",
      "children": [
        1,
        2
      ]
    },
    {
      "matrix": [
        0.3545453116562417,
        0,
        -0.6140904933739523,
        0,
        0,
        0.7090906233124631,
        0,
        0,
        0.6140904933739505,
        0,
        0.35454531165624087,
        0,
        -1.0169710958334688,
        0.03486160260490579,
        -2.061720964386041,
        0.9999999999999999
      ],
      "name": "Boolean",
      "mesh": 2
    },
    {
      "matrix": [
        1.6130069721991307,
        0,
        0.14111982425570346,
        0,
        0,
        1.6191683967892139,
        0,
        0,
        -0.14111982425570346,
        0,
        1.6130069721991307,
        0,
        3965.736010734895,
        -70.55109162512183,
        2646.225263806905,
        1
      ],
      "name": "ghost",
      "children": [
        3,
        4
      ]
    },
    {
      "matrix": [
        0.7990151626684958,
        3.2648861898743053e-8,
        -0.601310876191206,
        0,
        -0.12008051543379372,
        0.9798575244545807,
        -0.15956159181612303,
        0,
        0.5891989813628258,
        0.19969785118958985,
        0.7829210232145187,
        0,
        2018.6070367731786,
        -658.1682585477876,
        162.83124059024692,
        1
      ],
      "camera": 0
    },
    {
      "matrix": [
        1,
        0,
        0,
        0,
        0,
        1,
        0,
        0,
        0,
        0,
        1,
        0,
        0,
        1,
        0,
        1
      ],
      "name": "Default Ambient Light"
    },
    {
      "name": "Scene 1",
      "children": [
        5,
        6,
        7
      ]
    }
  ],
  "bufferViews": [
    {
      "buffer": 0,
      "byteOffset": 0,
      "byteLength": 10416,
      "target": 34962,
      "byteStride": 12
    },
    {
      "buffer": 0,
      "byteOffset": 10416,
      "byteLength": 10416,
      "target": 34962,
      "byteStride": 12
    },
    {
      "buffer": 0,
      "byteOffset": 20832,
      "byteLength": 6944,
      "target": 34962,
      "byteStride": 8
    },
    {
      "buffer": 0,
      "byteOffset": 27776,
      "byteLength": 10080,
      "target": 34963
    },
    {
      "buffer": 0,
      "byteOffset": 37856,
      "byteLength": 5292,
      "target": 34962,
      "byteStride": 12
    },
    {
      "buffer": 0,
      "byteOffset": 43148,
      "byteLength": 5292,
      "target": 34962,
      "byteStride": 12
    },
    {
      "buffer": 0,
      "byteOffset": 48440,
      "byteLength": 3528,
      "target": 34962,
      "byteStride": 8
    },
    {
      "buffer": 0,
      "byteOffset": 51968,
      "byteLength": 4680,
      "target": 34963
    },
    {
      "buffer": 0,
      "byteOffset": 56648,
      "byteLength": 52728,
      "target": 34962,
      "byteStride": 12
    },
    {
      "buffer": 0,
      "byteOffset": 109376,
      "byteLength": 52728,
      "target": 34962,
      "byteStride": 12
    },
    {
      "buffer": 0,
      "byteOffset": 162104,
      "byteLength": 28704,
      "target": 34963
    }
  ],
  "buffers": [
    {
      "byteLength": 190808,
      "uri": "data:application/octet-stream;base64,"
    }
  ],
  "accessors": [
    {
      "bufferView": 0,
      "componentType": 5126,
      "count": 868,
      "max": [
        57.56268310546875,
        1.529799461364746,
        50.92145919799805
      ],
      "min": [
        -57.56268310546875,
        -1.529799461364746,
        -50.92145919799805
      ],
      "type": "VEC3"
    },
    {
      "bufferView": 1,
      "componentType": 5126,
      "count": 868,
      "max": [
        0.9929393529891968,
        1,
        1
      ],
      "min": [
        -0.9929393529891968,
        -1,
        -1
      ],
      "type": "VEC3"
    },
    {
      "bufferView": 2,
      "componentType": 5126,
      "count": 868,
      "max": [
        1,
        1
      ],
      "min": [
        0,
        0
      ],
      "type": "VEC2"
    },
    {
      "bufferView": 3,
      "componentType": 5123,
      "count": 5040,
      "max": [
        867
      ],
      "min": [
        0
      ],
      "type": "SCALAR"
    },
    {
      "bufferView": 4,
      "componentType": 5126,
      "count": 441,
      "max": [
        23.210676193237305,
        23.5,
        23.210676193237305
      ],
      "min": [
        -23.210676193237305,
        3.6762099266052246,
        -23.210676193237305
      ],
      "type": "VEC3"
    },
    {
      "bufferView": 5,
      "componentType": 5126,
      "count": 441,
      "max": [
        0.9876883625984192,
        1,
        0.9876883625984192
      ],
      "min": [
        -0.9876883625984192,
        0.15643446147441864,
        -0.9876883625984192
      ],
      "type": "VEC3"
    },
    {
      "bufferView": 6,
      "componentType": 5126,
      "count": 441,
      "max": [
        1.024999976158142,
        1
      ],
      "min": [
        0,
        0
      ],
      "type": "VEC2"
    },
    {
      "bufferView": 7,
      "componentType": 5123,
      "count": 2340,
      "max": [
        440
      ],
      "min": [
        0
      ],
      "type": "SCALAR"
    },
    {
      "bufferView": 8,
      "componentType": 5126,
      "count": 4394,
      "max": [
        87.16925048828125,
        125.89463806152344,
        89.84208679199219
      ],
      "min": [
        -90.7710952758789,
        -125.99296569824219,
        -84.450439453125
      ],
      "type": "VEC3"
    },
    {
      "bufferView": 9,
      "componentType": 5126,
      "count": 4394,
      "max": [
        0.9981644153594971,
        0.9999994039535522,
        0.999305009841919
      ],
      "min": [
        -0.9970934391021729,
        -0.2957610785961151,
        -0.9965255260467529
      ],
      "type": "VEC3"
    },
    {
      "bufferView": 10,
      "componentType": 5125,
      "count": 7176,
      "max": [
        4393
      ],
      "min": [
        0
      ],
      "type": "SCALAR"
    }
  ],
  "materials": [
    {
      "pbrMetallicRoughness": {
        "baseColorFactor": [
          0.005275576519821669,
          0.005275576519821669,
          0.005359659054027511,
          1
        ],
        "metallicFactor": 0,
        "roughnessFactor": 0.9897447693238148
      },
      "doubleSided": false
    },
    {
      "pbrMetallicRoughness": {
        "baseColorFactor": [
          0.009697540719937739,
          0.009371054086876768,
          0.009371054086876768,
          1
        ],
        "metallicFactor": 0,
        "roughnessFactor": 0.9856067696660797
      },
      "doubleSided": true
    },
    {
      "pbrMetallicRoughness": {
        "baseColorFactor": [
          1,
          1,
          1,
          1
        ],
        "metallicFactor": 0,
        "roughnessFactor": 0.995
      },
      "doubleSided": false
    }
  ],
  "meshes": [
    {
      "primitives": [
        {
          "mode": 4,
          "attributes": {
            "POSITION": 0,
            "NORMAL": 1,
            "TEXCOORD_0": 2
          },
          "extras": {
            "parameters": {
              "width": 115.75950686693707,
              "radialSegments": 30,
              "heightSegments": 1,
              "openEnded": false,
              "thetaStart": 0,
              "thetaLength": 360,
              "cornerRadius": 110,
              "cornerSegments": 6,
              "hollow": 0.94,
              "height": 3.0595988092630413,
              "depth": 101.84291831693308,
              "radiusTop": 57.87975343346854,
              "radiusBottom": 57.87975343346854,
              "type": "CylinderGeometry"
            },
            "type": "CylinderGeometry"
          },
          "indices": 3,
          "material": 0
        }
      ]
    },
    {
      "primitives": [
        {
          "mode": 4,
          "attributes": {
            "POSITION": 4,
            "NORMAL": 5,
            "TEXCOORD_0": 6
          },
          "extras": {
            "parameters": {
              "width": 47,
              "widthSegments": 20,
              "heightSegments": 20,
              "phiStart": 0,
              "phiLength": 6.283185307179586,
              "thetaStart": 0,
              "thetaLength": 81,
              "height": 47,
              "depth": 47,
              "type": "SphereGeometry"
            },
            "type": "SphereGeometry"
          },
          "indices": 7,
          "material": 1
        }
      ]
    },
    {
      "primitives": [
        {
          "mode": 4,
          "attributes": {
            "POSITION": 8,
            "NORMAL": 9
          },
          "extras": {
            "type": "SubdivGeometry",
            "parameters": {
              "width": 177.94034576416016,
              "height": 251.88760375976562,
              "depth": 174.2925262451172
            }
          },
          "indices": 10,
          "material": 2
        }
      ]
    }
  ],
  "cameras": [
    {
      "type": "orthographic",
      "orthographic": {
        "xmag": 7.0373339999999995,
        "ymag": 4.04402353125,
        "zfar": 100000,
        "znear": 0
      }
    }
  ]
}