{
  "asset": {
    "version": "2.0",
    "generator": "THREE.GLTFExporter"
  },
  "scenes": [
    {
      "nodes": [
        0
      ]
    }
  ],
  "scene": 0,
  "nodes": [
    {
      "children": [
        6
      ],
      "matrix": [
        0.01,
        0,
        0,
        0,
        0,
        0.01,
        0,
        0,
        0,
        0,
        0.01,
        0,
        0,
        0,
        0,
        1
      ]
    },
    {
      "matrix": [
        1,
        0,
        0,
        0,
        0,
        1.2352428038367955,
        0,
        0,
        0,
        0,
        1,
        0,
        5124.365126519895,
        -327.7419905473648,
        741,
        1
      ],
      "name": "Shape 7",
      "mesh": 0
    },
    {
      "matrix": [
        0.9452078967921725,
        0,
        0,
        0,
        0,
        1,
        0,
        0,
        0,
        0,
        1,
        0,
        5135.222599477246,
        -31.300370674317946,
        741,
        1
      ],
      "name": "Shape 6",
      "mesh": 1
    },
    {
      "matrix": [
        1,
        0,
        0,
        0,
        0,
        1,
        0,
        0,
        0,
        0,
        1,
        0,
        4955.785282582715,
        -333.7929124493048,
        741,
        1
      ],
      "name": "Shape 5",
      "mesh": 2
    },
    {
      "matrix": [
        0.9998093843173178,
        4.336808689942018e-19,
        -0.019524216527836438,
        0,
        -0.005782423835189331,
        0.9551362488001942,
        -0.296110300061453,
        0,
        0.01864828693516045,
        0.2961667540894716,
        0.9549541848520747,
        0,
        4988.397318040538,
        499.2146643241912,
        2898.8294563249183,
        1
      ],
      "camera": 0
    },
    {
      "matrix": [
        1,
        0,
        0,
        0,
        0,
        1,
        0,
        0,
        0,
        0,
        1,
        0,
        0,
        1,
        0,
        1
      ],
      "name": "Default Ambient Light"
    },
    {
      "name": "Scene",
      "children": [
        1,
        2,
        3,
        4,
        5
      ]
    }
  ],
  "bufferViews": [
    {
      "buffer": 0,
      "byteOffset": 0,
      "byteLength": 14952,
      "target": 34962,
      "byteStride": 12
    },
    {
      "buffer": 0,
      "byteOffset": 14952,
      "byteLength": 14952,
      "target": 34962,
      "byteStride": 12
    },
    {
      "buffer": 0,
      "byteOffset": 29904,
      "byteLength": 9968,
      "target": 34962,
      "byteStride": 8
    },
    {
      "buffer": 0,
      "byteOffset": 39872,
      "byteLength": 23568,
      "target": 34963
    },
    {
      "buffer": 0,
      "byteOffset": 63440,
      "byteLength": 14952,
      "target": 34962,
      "byteStride": 12
    },
    {
      "buffer": 0,
      "byteOffset": 78392,
      "byteLength": 14952,
      "target": 34962,
      "byteStride": 12
    },
    {
      "buffer": 0,
      "byteOffset": 93344,
      "byteLength": 9968,
      "target": 34962,
      "byteStride": 8
    },
    {
      "buffer": 0,
      "byteOffset": 103312,
      "byteLength": 23568,
      "target": 34963
    },
    {
      "buffer": 0,
      "byteOffset": 126880,
      "byteLength": 19512,
      "target": 34962,
      "byteStride": 12
    },
    {
      "buffer": 0,
      "byteOffset": 146392,
      "byteLength": 19512,
      "target": 34962,
      "byteStride": 12
    },
    {
      "buffer": 0,
      "byteOffset": 165904,
      "byteLength": 13008,
      "target": 34962,
      "byteStride": 8
    },
    {
      "buffer": 0,
      "byteOffset": 178912,
      "byteLength": 30864,
      "target": 34963
    }
  ],
  "buffers": [
    {
      "byteLength": 209776,
      "uri": "data:application/octet-stream;base64,"
    }
  ],
  "accessors": [
    {
      "bufferView": 0,
      "componentType": 5126,
      "count": 1246,
      "max": [
        0.12984764575958252,
        155.32664489746094,
        200
      ],
      "min": [
        -155.32012939453125,
        2.0024544969778936e-14,
        0
      ],
      "type": "VEC3"
    },
    {
      "bufferView": 1,
      "componentType": 5126,
      "count": 1246,
      "max": [
        1,
        0.9996920824050903,
        1
      ],
      "min": [
        -0.9996790289878845,
        -1,
        -1
      ],
      "type": "VEC3"
    },
    {
      "bufferView": 2,
      "componentType": 5126,
      "count": 1246,
      "max": [
        1,
        1
      ],
      "min": [
        0,
        0
      ],
      "type": "VEC2"
    },
    {
      "bufferView": 3,
      "componentType": 5125,
      "count": 5892,
      "max": [
        1245
      ],
      "min": [
        0
      ],
      "type": "SCALAR"
    },
    {
      "bufferView": 4,
      "componentType": 5126,
      "count": 1246,
      "max": [
        204.9796600341797,
        -9.505424499511719,
        200
      ],
      "min": [
        0,
        -296.4416198730469,
        0
      ],
      "type": "VEC3"
    },
    {
      "bufferView": 5,
      "componentType": 5126,
      "count": 1246,
      "max": [
        0.999685525894165,
        0.9999376535415649,
        1
      ],
      "min": [
        -1,
        -1,
        -1
      ],
      "type": "VEC3"
    },
    {
      "bufferView": 6,
      "componentType": 5126,
      "count": 1246,
      "max": [
        1,
        1
      ],
      "min": [
        0,
        0
      ],
      "type": "VEC2"
    },
    {
      "bufferView": 7,
      "componentType": 5125,
      "count": 5892,
      "max": [
        1245
      ],
      "min": [
        0
      ],
      "type": "SCALAR"
    },
    {
      "bufferView": 8,
      "componentType": 5126,
      "count": 1626,
      "max": [
        382.00982666015625,
        0,
        200
      ],
      "min": [
        0.03651614114642143,
        -178.1695556640625,
        0
      ],
      "type": "VEC3"
    },
    {
      "bufferView": 9,
      "componentType": 5126,
      "count": 1626,
      "max": [
        0.9997055530548096,
        1,
        1
      ],
      "min": [
        -0.999843955039978,
        -0.9998353719711304,
        -1
      ],
      "type": "VEC3"
    },
    {
      "bufferView": 10,
      "componentType": 5126,
      "count": 1626,
      "max": [
        1,
        1
      ],
      "min": [
        0,
        0
      ],
      "type": "VEC2"
    },
    {
      "bufferView": 11,
      "componentType": 5125,
      "count": 7716,
      "max": [
        1625
      ],
      "min": [
        0
      ],
      "type": "SCALAR"
    }
  ],
  "materials": [
    {
      "pbrMetallicRoughness": {
        "baseColorFactor": [
          1,
          1,
          1,
          1
        ],
        "metallicFactor": 0,
        "roughnessFactor": 0.995
      },
      "doubleSided": false
    },
    {
      "pbrMetallicRoughness": {
        "baseColorFactor": [
          1,
          1,
          1,
          1
        ],
        "metallicFactor": 0,
        "roughnessFactor": 0.995
      },
      "doubleSided": false
    },
    {
      "pbrMetallicRoughness": {
        "baseColorFactor": [
          0.7538193288647965,
          0.24409519836182114,
          1,
          1
        ],
        "metallicFactor": 0,
        "roughnessFactor": 0.995
      },
      "doubleSided": false
    }
  ],
  "meshes": [
    {
      "primitives": [
        {
          "mode": 4,
          "attributes": {
            "POSITION": 0,
            "NORMAL": 1,
            "TEXCOORD_0": 2
          },
          "extras": {
            "parameters": {
              "width": 155.44997987752504,
              "subdivisions": 40,
              "roundness": 14,
              "extrudeBevelSize": 4,
              "extrudeBevelSegments": 3,
              "windingRule": 0,
              "height": 155.32664208274298,
              "depth": 200,
              "shape": {
                "points": [
                  {
                    "fi": 0.4200078613186083,
                    "id": "a8f60d11-fd42-4252-bb8e-073d8948cb2b",
                    "data": {
                      "position": [
                        0.12984764542943594,
                        2.002454413875901e-14
                      ],
                      "controlPrevious": {
                        "position": [
                          0.12984764542943594,
                          2.002454413875901e-14
                        ]
                      },
                      "controlNext": {
                        "position": [
                          0.12984764542943594,
                          2.002454413875901e-14
                        ]
                      },
                      "areControlsDirectionsMirrored": true,
                      "roundness": 14
                    }
                  },
                  {
                    "fi": 0.9896689174279838,
                    "id": "a1145ba2-6f35-42af-81ba-576c87229480",
                    "data": {
                      "position": [
                        -163.51281163434942,
                        2.002454413875901e-14
                      ],
                      "controlPrevious": {
                        "position": [
                          -163.51281163434942,
                          2.002454413875901e-14
                        ]
                      },
                      "controlNext": {
                        "position": [
                          -163.51281163434942,
                          2.002454413875901e-14
                        ]
                      },
                      "areControlsDirectionsMirrored": true,
                      "roundness": 14
                    }
                  },
                  {
                    "fi": 1.4685675254034762,
                    "id": "7c84f23b-4131-4e9c-b9f9-b93b605c6897",
                    "data": {
                      "position": [
                        0.12984764542943594,
                        163.51281163434942
                      ],
                      "controlPrevious": {
                        "position": [
                          0.12984764542943594,
                          163.51281163434942
                        ]
                      },
                      "controlNext": {
                        "position": [
                          0.12984764542943594,
                          163.51281163434942
                        ]
                      },
                      "areControlsDirectionsMirrored": true,
                      "roundness": 14
                    }
                  }
                ],
                "isClosed": true,
                "roundness": 14,
                "shapeHoles": []
              },
              "type": "VectorGeometry"
            },
            "shape": {
              "points": [
                0.12984764542943594,
                2.002454413875901e-14,
                0.12984764542943594,
                2.002454413875901e-14,
                0.12984764542943594,
                2.002454413875901e-14,
                14,
                -163.51281163434942,
                2.002454413875901e-14,
                -163.51281163434942,
                2.002454413875901e-14,
                -163.51281163434942,
                2.002454413875901e-14,
                14,
                0.12984764542943594,
                163.51281163434942,
                0.12984764542943594,
                163.51281163434942,
                0.12984764542943594,
                163.51281163434942,
                14
              ],
              "shapeHoles": [],
              "isClosed": true,
              "roundness": 14
            },
            "type": "VectorGeometry"
          },
          "indices": 3,
          "material": 0
        }
      ]
    },
    {
      "primitives": [
        {
          "mode": 4,
          "attributes": {
            "POSITION": 4,
            "NORMAL": 5,
            "TEXCOORD_0": 6
          },
          "extras": {
            "parameters": {
              "width": 204.97966752560984,
              "subdivisions": 40,
              "roundness": 14,
              "extrudeBevelSize": 4,
              "extrudeBevelSegments": 3,
              "windingRule": 0,
              "height": 286.9362039189232,
              "depth": 200,
              "shape": {
                "points": [
                  {
                    "fi": 0.539139506246209,
                    "id": "8f2fe24b-4642-4e34-a6ca-e60cf5fe6c42",
                    "data": {
                      "position": [
                        0,
                        0
                      ],
                      "controlPrevious": {
                        "position": [
                          0,
                          0
                        ]
                      },
                      "controlNext": {
                        "position": [
                          0,
                          0
                        ]
                      },
                      "areControlsDirectionsMirrored": true,
                      "roundness": 14
                    }
                  },
                  {
                    "fi": 1.024580066262336,
                    "id": "18fda672-3d1c-421a-a2d9-c6d9513206ea",
                    "data": {
                      "position": [
                        0,
                        -296.4416285347765
                      ],
                      "controlPrevious": {
                        "position": [
                          0,
                          -296.4416285347765
                        ]
                      },
                      "controlNext": {
                        "position": [
                          0,
                          -296.4416285347765
                        ]
                      },
                      "areControlsDirectionsMirrored": true,
                      "roundness": 14
                    }
                  },
                  {
                    "fi": 1.4708456544019213,
                    "id": "114fc9a7-aeef-4346-843d-6503b5625b1f",
                    "data": {
                      "position": [
                        211.76270342812526,
                        -296.4416285347765
                      ],
                      "controlPrevious": {
                        "position": [
                          211.76270342812526,
                          -296.4416285347765
                        ]
                      },
                      "controlNext": {
                        "position": [
                          211.76270342812526,
                          -296.4416285347765
                        ]
                      },
                      "areControlsDirectionsMirrored": true,
                      "roundness": 14
                    }
                  }
                ],
                "isClosed": true,
                "roundness": 14,
                "shapeHoles": []
              },
              "type": "VectorGeometry"
            },
            "shape": {
              "points": [
                0,
                0,
                0,
                0,
                0,
                0,
                14,
                0,
                -296.4416285347765,
                0,
                -296.4416285347765,
                0,
                -296.4416285347765,
                14,
                211.76270342812526,
                -296.4416285347765,
                211.76270342812526,
                -296.4416285347765,
                211.76270342812526,
                -296.4416285347765,
                14
              ],
              "shapeHoles": [],
              "isClosed": true,
              "roundness": 14
            },
            "type": "VectorGeometry"
          },
          "indices": 7,
          "material": 1
        }
      ]
    },
    {
      "primitives": [
        {
          "mode": 4,
          "attributes": {
            "POSITION": 8,
            "NORMAL": 9,
            "TEXCOORD_0": 10
          },
          "extras": {
            "parameters": {
              "width": 381.9733025165684,
              "subdivisions": 40,
              "roundness": 14,
              "extrudeBevelSize": 4,
              "extrudeBevelSegments": 3,
              "windingRule": 0,
              "height": 178.1695547106092,
              "depth": 200,
              "shape": {
                "points": [
                  {
                    "fi": 0.6107248820304427,
                    "id": "2839a268-59bd-47ad-afe7-5352b3336b25",
                    "data": {
                      "position": [
                        0,
                        0
                      ],
                      "controlPrevious": {
                        "position": [
                          0,
                          0
                        ]
                      },
                      "controlNext": {
                        "position": [
                          0,
                          0
                        ]
                      },
                      "areControlsDirectionsMirrored": true,
                      "roundness": 14
                    }
                  },
                  {
                    "fi": 1.0049516189441041,
                    "id": "ccc862f3-0f8e-46a2-833f-6af31a815bdc",
                    "data": {
                      "position": [
                        381.9607071413766,
                        0
                      ],
                      "controlPrevious": {
                        "position": [
                          381.9607071413766,
                          0
                        ]
                      },
                      "controlNext": {
                        "position": [
                          381.9607071413766,
                          0
                        ]
                      },
                      "areControlsDirectionsMirrored": true,
                      "roundness": 14
                    }
                  },
                  {
                    "fi": 1.5320523530899832,
                    "id": "b0d1311b-a856-49fd-b2eb-da1fb7e1af39",
                    "data": {
                      "position": [
                        190.93297829678704,
                        -178.1695547106092
                      ],
                      "controlPrevious": {
                        "position": [
                          395.85190548496485,
                          -178.1695547106092
                        ]
                      },
                      "controlNext": {
                        "position": [
                          -12.718864730396916,
                          -178.1695547106092
                        ]
                      },
                      "areControlsDirectionsMirrored": true,
                      "roundness": 14
                    }
                  }
                ],
                "isClosed": true,
                "roundness": 14,
                "shapeHoles": []
              },
              "type": "VectorGeometry"
            },
            "shape": {
              "points": [
                0,
                0,
                0,
                0,
                0,
                0,
                14,
                381.9607071413766,
                0,
                381.9607071413766,
                0,
                381.9607071413766,
                0,
                14,
                190.93297829678704,
                -178.1695547106092,
                395.85190548496485,
                -178.1695547106092,
                -12.718864730396916,
                -178.1695547106092,
                14
              ],
              "shapeHoles": [],
              "isClosed": true,
              "roundness": 14
            },
            "type": "VectorGeometry"
          },
          "indices": 11,
          "material": 2
        }
      ]
    }
  ],
  "cameras": [
    {
      "type": "orthographic",
      "orthographic": {
        "xmag": 19.630712282140962,
        "ymag": 11.792059808369396,
        "zfar": 100000,
        "znear": 0
      }
    }
  ]
}